<svg width="125" height="35" viewBox="0 0 125 35" fill="none" xmlns="http://www.w3.org/2000/svg">
<g clip-path="url(#clip0_1224_26965)">
<path d="M17.845 35C17.7564 35 17.6677 35 17.579 35C15.2806 34.9977 13.0046 34.5466 10.879 33.672C8.76699 32.8071 6.84707 31.5326 5.23004 29.922C5.19871 29.8996 5.17214 29.8711 5.15188 29.8383C5.13163 29.8056 5.11808 29.7691 5.11204 29.731C5.12244 29.6491 5.16487 29.5747 5.23004 29.524C5.32104 29.435 7.68204 26.941 10.415 24.053L10.427 24.04L10.446 24.019C13.757 20.519 17.51 16.556 17.679 16.391C17.7152 16.3502 17.765 16.3239 17.819 16.317C17.859 16.317 17.883 16.344 17.883 16.391C17.972 16.499 29.962 29.382 30.333 29.622C30.388 29.676 30.41 29.722 30.396 29.763C30.382 29.804 30.323 29.822 30.231 29.822C29.5517 30.5296 28.7991 31.1632 27.986 31.712C25.4081 33.5574 22.3733 34.6601 19.212 34.9C18.7595 34.9677 18.3026 35.0011 17.845 35ZM75.645 30.817H72.988C72.788 30.817 72.788 30.717 72.788 30.617V10.817C72.788 10.617 72.888 10.617 72.988 10.617H75.845C76.045 10.617 76.045 10.717 76.045 10.817V13.11C76.6985 12.0518 77.6597 11.2185 78.8 10.722C79.7279 10.3436 80.7248 10.164 81.7264 10.1946C82.728 10.2253 83.712 10.4656 84.615 10.9C85.5103 11.3243 86.3031 11.9371 86.9392 12.6966C87.5753 13.4561 88.0395 14.3442 88.3 15.3C88.9722 17.4832 88.7522 19.8437 87.688 21.865C87.2024 22.8297 86.4796 23.6552 85.5875 24.2641C84.6955 24.8729 83.6634 25.2452 82.588 25.346C82.2103 25.4119 81.8275 25.4454 81.444 25.446C80.5765 25.4458 79.7174 25.276 78.915 24.946C77.8832 24.5541 76.9695 23.9032 76.262 23.056C76.2203 23.0125 76.1864 22.9621 76.162 22.907C76.1377 22.8519 76.1038 22.8015 76.062 22.758V30.418C76.05 30.817 76.05 30.817 75.642 30.817H75.645ZM80.6 12.772C79.5204 12.7674 78.4787 13.1702 77.683 13.9C77.1423 14.3435 76.7128 14.9074 76.4291 15.5465C76.1454 16.1857 76.0152 16.8825 76.049 17.581C76.146 17.9055 76.2129 18.2383 76.249 18.575C76.3952 19.6669 76.9294 20.6698 77.754 21.4004C78.5785 22.131 79.6385 22.5405 80.74 22.554H80.8C81.702 22.5624 82.586 22.3018 83.3392 21.8056C84.0924 21.3094 84.6807 20.6 85.029 19.768C85.4503 18.7594 85.5207 17.6385 85.229 16.585C85.0895 15.7942 84.7418 15.0549 84.2217 14.4431C83.7017 13.8313 83.028 13.3691 82.27 13.104C81.7401 12.8814 81.1709 12.7671 80.596 12.768L80.6 12.772ZM63.4 25.688C61.3819 25.6865 59.4164 25.0439 57.787 23.853C57.7513 23.8378 57.7192 23.8153 57.6925 23.7871C57.6658 23.7589 57.6452 23.7255 57.632 23.689C57.6185 23.6327 57.6162 23.5744 57.6253 23.5172C57.6344 23.4601 57.6547 23.4053 57.685 23.356C57.9009 23.0199 58.0869 22.6655 58.241 22.297C58.3793 21.9788 58.5342 21.668 58.705 21.366C59.1035 21.4925 59.4919 21.6486 59.867 21.833C60.2855 22.034 60.7152 22.2106 61.154 22.362C62.1867 22.7863 63.3145 22.9244 64.419 22.762C64.774 22.7227 65.1193 22.6212 65.439 22.462C65.6479 22.3665 65.8307 22.2219 65.9719 22.0407C66.1131 21.8595 66.2085 21.6469 66.25 21.421C66.2899 21.1964 66.2743 20.9655 66.2046 20.7484C66.1349 20.5312 66.0132 20.3344 65.85 20.175C65.5358 19.8791 65.1486 19.6721 64.728 19.575C64.1921 19.3527 63.6435 19.1624 63.085 19.005C62.731 18.898 62.398 18.797 62.075 18.679L60.545 18.079C59.8665 17.747 59.2978 17.2268 58.9069 16.5804C58.516 15.934 58.3194 15.1888 58.3404 14.4337C58.3615 13.6785 58.5995 12.9455 59.0258 12.3219C59.4522 11.6983 60.049 11.2106 60.745 10.917C61.7735 10.5141 62.8685 10.3079 63.973 10.309C64.121 10.309 64.273 10.309 64.418 10.32C65.944 10.4232 67.4339 10.8305 68.8 11.518C69.052 11.618 69.178 11.665 69.207 11.749C69.236 11.833 69.159 11.962 69.007 12.214L68.089 14.005C68.0691 14.0248 68.0504 14.0458 68.033 14.068C67.997 14.113 67.971 14.145 67.917 14.145C67.8699 14.1412 67.8242 14.1272 67.783 14.104C66.5639 13.4107 65.2035 13.0025 63.804 12.91C63.2848 12.8279 62.7528 12.8973 62.272 13.11C62.0291 13.1828 61.8127 13.325 61.6496 13.5192C61.4865 13.7135 61.3838 13.9511 61.354 14.203C61.291 14.4561 61.3176 14.7231 61.4291 14.9588C61.5407 15.1945 61.7304 15.3843 61.966 15.496C62.6335 15.8974 63.3552 16.2005 64.109 16.396C64.9882 16.6072 65.8431 16.9088 66.66 17.296C67.1783 17.523 67.6597 17.8263 68.088 18.196C68.5916 18.6117 68.9786 19.1511 69.211 19.7613C69.4434 20.3715 69.5134 21.0316 69.414 21.677C69.3452 22.478 69.0356 23.2394 68.5258 23.8611C68.0161 24.4828 67.3301 24.9356 66.558 25.16C65.5428 25.5134 64.475 25.6919 63.4 25.688V25.688ZM46.757 25.417C45.9542 25.418 45.1593 25.2585 44.419 24.948C43.8185 24.7251 43.2716 24.3785 42.8137 23.9305C42.3558 23.4826 41.9971 22.9435 41.761 22.348C41.5301 21.7579 41.4292 21.125 41.465 20.4923C41.5009 19.8597 41.6729 19.2422 41.969 18.682C42.2724 18.1531 42.6835 17.6939 43.1756 17.334C43.6678 16.9742 44.2301 16.7217 44.826 16.593C45.5929 16.3959 46.3813 16.2952 47.173 16.293H51.56C51.682 16.293 51.775 16.256 51.799 16.2C51.8044 16.1809 51.8039 16.1606 51.7977 16.1417C51.7915 16.1228 51.7798 16.1062 51.764 16.094C51.7872 15.7267 51.7535 15.358 51.664 15.001C51.5254 14.4956 51.2365 14.0442 50.8356 13.7067C50.4347 13.3692 49.9407 13.1615 49.419 13.111C47.9735 12.8263 46.4752 13.0011 45.134 13.611C44.6583 13.8172 44.2123 14.0863 43.808 14.411C43.7758 14.4484 43.7302 14.4718 43.681 14.476C43.617 14.476 43.559 14.422 43.502 14.312C43.0907 13.7044 42.7157 13.073 42.379 12.421C42.325 12.368 42.302 12.321 42.316 12.282C42.33 12.243 42.389 12.223 42.481 12.223C44.3985 11.0195 46.6172 10.3827 48.881 10.386C49.23 10.386 49.581 10.401 49.932 10.432C50.7131 10.4769 51.4768 10.6811 52.176 11.032C52.9404 11.3821 53.6033 11.9207 54.1024 12.5974C54.6014 13.274 54.9203 14.0663 55.029 14.9C55.1154 15.8594 55.1488 16.8229 55.129 17.786V25.148C55.129 25.348 55.029 25.348 54.929 25.348H52.171C51.971 25.348 51.971 25.248 51.971 25.148V23.556C50.7378 24.5408 49.2534 25.1606 47.686 25.345C47.3777 25.3925 47.0661 25.4163 46.754 25.416L46.757 25.417ZM47.481 18.681C46.8239 18.6904 46.1713 18.7914 45.542 18.981C45.2689 19.0682 45.0226 19.2236 44.8263 19.4326C44.6299 19.6415 44.4901 19.897 44.42 20.175C44.3088 20.7331 44.4161 21.3126 44.7198 21.7938C45.0235 22.275 45.5004 22.6213 46.052 22.761C46.6602 22.9436 47.2988 23.0023 47.9301 22.9336C48.5614 22.8649 49.1724 22.6702 49.727 22.361C50.3068 22.1473 50.8004 21.7492 51.1321 21.2279C51.4638 20.7065 51.6152 20.0907 51.563 19.475C51.632 19.2826 51.6659 19.0794 51.663 18.875C51.663 18.675 51.563 18.675 51.463 18.675L47.481 18.681ZM117.842 25.381C116.781 25.3817 115.728 25.2004 114.728 24.845C113.552 24.4583 112.509 23.75 111.715 22.8003C110.922 21.8506 110.41 20.6976 110.239 19.472C109.891 17.9 110.07 16.257 110.749 14.797C111.231 13.6858 111.991 12.7175 112.956 11.9858C113.921 11.2541 115.058 10.7837 116.258 10.62C117.545 10.4026 118.861 10.4365 120.135 10.72C121.176 10.9187 122.14 11.4067 122.916 12.1279C123.692 12.8492 124.25 13.7746 124.524 14.798C124.963 16.1787 125.102 17.6372 124.932 19.076C124.932 19.276 124.832 19.276 124.732 19.276H119.221C117.7 19.0691 116.167 18.9652 114.632 18.965C114.332 18.965 114.017 18.965 113.712 18.977C113.67 18.9711 113.628 18.9759 113.588 18.991C113.549 19.006 113.514 19.0308 113.487 19.063C113.472 19.0971 113.466 19.1346 113.469 19.1718C113.473 19.209 113.486 19.2445 113.508 19.275C113.771 20.2804 114.362 21.1691 115.188 21.7999C116.014 22.4308 117.027 22.7676 118.066 22.757H118.1C118.167 22.757 118.23 22.757 118.291 22.757C119.779 22.7633 121.21 22.1914 122.284 21.162C122.303 21.1394 122.326 21.1211 122.352 21.1085C122.379 21.0959 122.408 21.0892 122.437 21.089C122.466 21.0888 122.495 21.0953 122.522 21.1079C122.548 21.1206 122.572 21.1391 122.59 21.162C122.844 21.41 123.077 21.662 123.303 21.906C123.529 22.15 123.764 22.406 124.02 22.654C124.043 22.6714 124.062 22.6939 124.075 22.7197C124.088 22.7456 124.095 22.7741 124.095 22.803C124.095 22.8321 124.088 22.8606 124.075 22.8866C124.062 22.9126 124.043 22.9353 124.02 22.953C122.872 24.0248 121.465 24.779 119.937 25.141C119.249 25.3012 118.545 25.3827 117.839 25.384L117.842 25.381ZM117.72 12.836C116.819 12.8325 115.939 13.1123 115.205 13.636C114.74 13.968 114.349 14.3926 114.057 14.8831C113.764 15.3736 113.576 15.9194 113.505 16.486C113.465 16.562 113.455 16.611 113.473 16.64C113.491 16.669 113.587 16.684 113.709 16.684H121.872C122.072 16.684 122.072 16.584 122.072 16.484C122.005 15.7406 121.76 15.0242 121.358 14.395C121.017 13.9557 120.585 13.5956 120.092 13.3392C119.598 13.0828 119.055 12.9364 118.5 12.91C118.242 12.8628 117.98 12.8391 117.717 12.839L117.72 12.836ZM95.164 25.248H95.132H92.377C92.177 25.248 92.177 25.248 92.177 25.048V10.722C92.177 10.522 92.277 10.522 92.377 10.522H95.132C95.332 10.522 95.332 10.622 95.332 10.722L95.432 24.948C95.4369 24.9885 95.4325 25.0296 95.4189 25.0681C95.4054 25.1066 95.3832 25.1415 95.354 25.17C95.3029 25.2192 95.235 25.2471 95.164 25.248ZM103.535 25.048H103.501H100.746C100.546 25.048 100.546 24.948 100.546 24.848V10.522C100.546 10.322 100.646 10.322 100.746 10.322H103.6C103.8 10.322 103.8 10.422 103.8 10.522V12.909C103.926 12.7348 104.063 12.5678 104.208 12.409C104.692 11.8055 105.295 11.3085 105.979 10.9492C106.664 10.5899 107.416 10.376 108.187 10.321C108.261 10.3163 108.334 10.3026 108.405 10.28C108.491 10.2527 108.581 10.2366 108.671 10.232C108.713 10.2305 108.756 10.2376 108.795 10.2529C108.835 10.2682 108.871 10.2914 108.901 10.321C108.958 10.3786 108.999 10.4504 109.019 10.5289C109.039 10.6075 109.038 10.69 109.016 10.768C109.009 10.8177 109.004 10.8678 109.003 10.918V13.006C109.003 13.206 108.903 13.206 108.803 13.206C108.677 13.197 108.549 13.192 108.423 13.192C107.515 13.1909 106.623 13.4363 105.843 13.902C105.215 14.264 104.696 14.7866 104.337 15.4162C103.978 16.0458 103.794 16.7595 103.803 17.484C103.735 19.146 103.758 20.784 103.78 22.365C103.791 23.15 103.803 23.955 103.803 24.745C103.808 24.7857 103.803 24.8268 103.789 24.8653C103.775 24.9038 103.752 24.9386 103.723 24.967C103.673 25.0173 103.606 25.0466 103.535 25.049V25.048ZM34.722 22.261C34.6707 22.2559 34.6227 22.2332 34.5863 22.1968C34.5498 22.1603 34.5271 22.1123 34.522 22.061C34.444 21.961 18.91 5.32001 17.991 4.55201C17.861 4.42601 17.769 4.37201 17.684 4.37201C17.564 4.37201 17.456 4.47701 17.277 4.65101C17.136 4.78701 1.04604 21.864 0.843044 22.162C0.812603 22.1974 0.770295 22.2205 0.724044 22.227C0.711208 22.227 0.698636 22.2234 0.687822 22.2165C0.677008 22.2095 0.668408 22.1997 0.663044 22.188C0.644807 22.1486 0.636564 22.1053 0.639044 22.062C0.127798 20.2856 -0.0791238 18.4355 0.0270436 16.59C0.114215 13.9192 0.886979 11.3158 2.27104 9.03001C3.4582 6.8344 5.11652 4.92872 7.12707 3.44964C9.13762 1.97055 11.4506 0.954724 13.9 0.475009C15.2313 0.159207 16.5948 -0.000203398 17.963 8.55613e-06C20.3115 -0.00231946 22.6363 0.470445 24.7973 1.38986C26.9584 2.30927 28.9111 3.65634 30.538 5.35001C33.1192 7.85705 34.8056 11.1424 35.338 14.701C35.51 15.6521 35.5771 16.6193 35.538 17.585C35.45 19.0974 35.2108 20.5972 34.824 22.062C34.824 22.165 34.824 22.261 34.722 22.261ZM93.745 8.03601C93.2489 8.03862 92.7716 7.84611 92.416 7.50001C92.2355 7.32482 92.0935 7.11395 91.9989 6.88083C91.9044 6.64771 91.8595 6.39745 91.867 6.14601C91.8721 5.62864 92.0765 5.13316 92.4377 4.76268C92.7989 4.3922 93.289 4.17526 93.806 4.15701H93.844C94.1008 4.1569 94.355 4.20795 94.5917 4.3072C94.8285 4.40644 95.0431 4.55187 95.223 4.73501C95.4042 4.92032 95.5442 5.1418 95.6338 5.38496C95.7234 5.62812 95.7606 5.88746 95.743 6.14601C95.7418 6.39517 95.6911 6.6416 95.5937 6.87096C95.4964 7.10032 95.3544 7.30803 95.176 7.48201C94.8074 7.83617 94.3162 8.03428 93.805 8.03501L93.745 8.03601Z" fill="white"/>
</g>
<defs>
<clipPath id="clip0_1224_26965">
<rect width="125" height="35" fill="white"/>
</clipPath>
</defs>
</svg>
